<?xml version="1.0" standalone="no"?>
<!DOCTYPE svg PUBLIC "-//W3C//DTD SVG 20010904//EN"
 "http://www.w3.org/TR/2001/REC-SVG-20010904/DTD/svg10.dtd">
<svg version="1.0" xmlns="http://www.w3.org/2000/svg"
 width="250.000000pt" height="67.000000pt" viewBox="0 0 250.000000 67.000000"
 preserveAspectRatio="xMidYMid meet">

<g transform="translate(0.000000,67.000000) scale(0.100000,-0.100000)"
fill="#000000" stroke="none">
<path d="M0 340 l0 -320 1223 2 1222 3 0 315 0 315 -1222 3 -1223 2 0 -320z
m2390 0 l0 -260 -1165 0 -1165 0 0 260 0 260 1165 0 1165 0 0 -260z"/>
<path d="M534 486 l-34 -34 0 -112 0 -112 34 -34 c38 -38 77 -44 125 -19 43
22 61 70 61 164 0 127 -35 181 -116 181 -28 0 -44 -8 -70 -34z m100 -42 c23
-23 23 -180 -1 -206 -20 -22 -31 -23 -55 -1 -25 23 -27 177 -1 205 20 22 37
23 57 2z"/>
<path d="M1089 492 c-29 -26 -32 -35 -37 -104 -10 -156 23 -228 105 -228 82 0
113 50 113 180 0 98 -12 136 -52 164 -36 26 -93 20 -129 -12z m99 -44 c8 -8
12 -47 12 -109 0 -110 -11 -131 -55 -111 -24 11 -25 15 -25 111 0 85 3 102 18
110 23 14 36 13 50 -1z"/>
<path d="M1624 490 c1 -17 7 -30 14 -30 9 0 12 -31 12 -120 0 -89 -3 -120 -12
-120 -7 0 -13 -13 -14 -30 l-1 -30 69 0 c65 0 68 1 58 19 -7 14 -7 22 2 27 7
5 4 10 -10 15 -21 8 -22 14 -22 124 0 112 1 115 22 115 17 0 19 3 10 12 -7 7
-8 17 -1 30 9 17 5 18 -59 18 l-69 0 1 -30z"/>
<path d="M1844 490 c1 -26 5 -30 28 -30 l27 0 3 -141 3 -142 33 -2 32 -3 0
144 0 144 36 0 c31 0 35 2 24 15 -10 12 -10 18 0 30 11 13 0 15 -87 15 l-100
0 1 -30z"/>
<path d="M2260 451 l0 -71 -45 0 -45 0 0 63 0 64 -30 0 -30 0 0 -169 c0 -105
4 -168 10 -168 6 0 10 5 10 12 0 9 3 9 12 0 23 -23 28 -12 28 59 l0 70 43 -3
42 -3 5 -75 c4 -61 7 -71 16 -56 8 12 14 15 18 7 20 -32 26 2 26 160 0 154 -2
171 -16 165 -9 -4 -23 -1 -30 5 -12 10 -14 -1 -14 -60z"/>
<path d="M140 339 c0 -146 2 -170 14 -160 10 8 16 9 21 1 16 -26 25 -4 25 60
0 39 3 70 8 70 4 0 22 -23 41 -50 18 -28 37 -50 42 -50 5 0 26 24 47 52 l37
53 3 -73 c3 -71 8 -82 29 -61 8 8 13 8 17 0 20 -32 26 2 26 159 0 94 -3 170
-7 169 -5 0 -37 -41 -73 -91 -36 -51 -70 -93 -76 -95 -6 -2 -41 39 -78 92 -37
52 -69 95 -72 95 -2 0 -4 -77 -4 -171z"/>
<path d="M775 477 c-9 -46 -2 -293 8 -303 4 -5 12 -2 16 5 6 9 11 10 15 2 17
-28 26 -5 26 69 0 44 3 80 8 80 4 -1 30 -30 57 -66 90 -117 85 -122 85 73 l0
170 -30 0 -29 0 -3 -84 -3 -84 -63 81 c-35 44 -68 82 -72 85 -5 3 -12 -10 -15
-28z"/>
<path d="M1332 337 l3 -172 103 -3 c94 -2 122 4 92 23 -8 5 -7 11 1 21 10 12
0 14 -60 14 l-71 0 0 143 0 143 -35 1 -35 1 2 -171z"/>
<path d="M2490 320 l0 -310 -1247 -3 -1248 -2 1253 -3 1252 -2 0 315 c0 173
-2 315 -5 315 -3 0 -5 -139 -5 -310z"/>
</g>
</svg>
